<?xml version="1.0" standalone="no"?>
<svg xmlns:xlink="http://www.w3.org/1999/xlink" id="wave" style="transform:rotate(0deg); transition: 0.3s" viewBox="0 0 1440 110" version="1.1" xmlns="http://www.w3.org/2000/svg"><defs><linearGradient id="sw-gradient-0" x1="0" x2="0" y1="1" y2="0"><stop stop-color="rgba(156, 120, 244, 1)" offset="0%"/><stop stop-color="rgba(156, 120, 244, 1)" offset="100%"/></linearGradient></defs><path style="transform:translate(0, 0px); opacity:1" fill="url(#sw-gradient-0)" d="M0,88L17.1,77C34.3,66,69,44,103,36.7C137.1,29,171,37,206,38.5C240,40,274,37,309,34.8C342.9,33,377,33,411,29.3C445.7,26,480,18,514,16.5C548.6,15,583,18,617,23.8C651.4,29,686,37,720,42.2C754.3,48,789,51,823,49.5C857.1,48,891,40,926,31.2C960,22,994,11,1029,20.2C1062.9,29,1097,59,1131,60.5C1165.7,62,1200,37,1234,27.5C1268.6,18,1303,26,1337,36.7C1371.4,48,1406,62,1440,64.2C1474.3,66,1509,55,1543,47.7C1577.1,40,1611,37,1646,45.8C1680,55,1714,77,1749,75.2C1782.9,73,1817,48,1851,34.8C1885.7,22,1920,22,1954,31.2C1988.6,40,2023,59,2057,71.5C2091.4,84,2126,92,2160,78.8C2194.3,66,2229,33,2263,33C2297.1,33,2331,66,2366,78.8C2400,92,2434,84,2451,80.7L2468.6,77L2468.6,110L2451.4,110C2434.3,110,2400,110,2366,110C2331.4,110,2297,110,2263,110C2228.6,110,2194,110,2160,110C2125.7,110,2091,110,2057,110C2022.9,110,1989,110,1954,110C1920,110,1886,110,1851,110C1817.1,110,1783,110,1749,110C1714.3,110,1680,110,1646,110C1611.4,110,1577,110,1543,110C1508.6,110,1474,110,1440,110C1405.7,110,1371,110,1337,110C1302.9,110,1269,110,1234,110C1200,110,1166,110,1131,110C1097.1,110,1063,110,1029,110C994.3,110,960,110,926,110C891.4,110,857,110,823,110C788.6,110,754,110,720,110C685.7,110,651,110,617,110C582.9,110,549,110,514,110C480,110,446,110,411,110C377.1,110,343,110,309,110C274.3,110,240,110,206,110C171.4,110,137,110,103,110C68.6,110,34,110,17,110L0,110Z"/></svg>